<?xml version="1.0" encoding="UTF-8" standalone="no"?><!DOCTYPE svg PUBLIC "-//W3C//DTD SVG 1.1//EN" "http://www.w3.org/Graphics/SVG/1.1/DTD/svg11.dtd"><svg width="100%" height="100%" viewBox="0 0 1001 1001" version="1.1" xmlns="http://www.w3.org/2000/svg" xmlns:xlink="http://www.w3.org/1999/xlink" xml:space="preserve" xmlns:serif="http://www.serif.com/" style="fill-rule:evenodd;clip-rule:evenodd;stroke-linejoin:round;stroke-miterlimit:2;"><rect id="Avatar" x="0.072" y="0.93" width="1000" height="1000" style="fill:#a6a6ff;fill-opacity:0;"/><g id="Avatar1" serif:id="Avatar"><circle cx="500.072" cy="500.93" r="500" style="fill:#a6a6ff;"/><g><path d="M805.072,726.599c-0,-38.289 -31.04,-69.328 -69.328,-69.328c-58.116,-0 -131.666,-0 -131.666,-0l-0,138.659l131.666,0c38.288,0 69.328,-31.039 69.328,-69.328c-0,-0.001 -0,-0.002 -0,-0.003Z" style="fill:#fefe74;"/><path d="M805.072,545.397c-0,-38.289 -31.04,-69.328 -69.328,-69.328c-58.116,-0 -131.666,-0 -131.666,-0l-0,138.659l131.666,0c38.288,0 69.328,-31.039 69.328,-69.328c-0,-0.001 -0,-0.002 -0,-0.003Z" style="fill:#fefe74;"/><path d="M805.072,364.194c-0,-38.288 -31.04,-69.328 -69.328,-69.328c-58.116,0 -131.666,0 -131.666,0l-0,138.66l131.666,-0c38.288,-0 69.328,-31.039 69.328,-69.328c-0,-0.001 -0,-0.002 -0,-0.004Z" style="fill:#fefe74;"/><path d="M195.072,680.387c-0,-30.644 12.173,-60.033 33.841,-81.701c21.669,-21.669 51.058,-33.842 81.702,-33.842l85.451,0l-0,231.086l-85.451,0c-30.644,0 -60.033,-12.173 -81.702,-33.842c-21.668,-21.668 -33.841,-51.057 -33.841,-81.701c-0,0 -0,0 -0,0Z" style="fill:#fefe74;"/><path d="M195.072,410.409c-0,-30.644 12.173,-60.032 33.841,-81.701c21.669,-21.668 51.058,-33.842 81.702,-33.842c44.763,0 85.451,0 85.451,0l-0,231.086l-85.451,0c-30.644,0 -60.033,-12.173 -81.702,-33.841c-21.668,-21.669 -33.841,-51.058 -33.841,-81.702c-0,0 -0,0 -0,0Z" style="fill:#fefe74;"/><path d="M439.07,354.97c-0,-10.809 2.916,-21.318 8.314,-30.479c5.193,-8.787 12.561,-16.143 21.363,-21.327c9.173,-5.387 19.697,-8.298 30.521,-8.298c10.825,0 21.349,2.911 30.522,8.298c8.802,5.184 16.17,12.54 21.363,21.327c5.398,9.161 8.314,19.67 8.314,30.479c0,33.173 -26.974,60.105 -60.199,60.105c-33.224,-0 -60.198,-26.932 -60.198,-60.105Zm32.948,-14.949c-7.951,0 -14.406,6.445 -14.406,14.383c0,7.938 6.455,14.383 14.406,14.383c7.95,-0 14.405,-6.445 14.405,-14.383c0,-7.938 -6.455,-14.383 -14.405,-14.383Zm54.658,0c-7.951,0 -14.406,6.445 -14.406,14.383c0,7.938 6.455,14.383 14.406,14.383c7.95,-0 14.405,-6.445 14.405,-14.383c0,-7.938 -6.455,-14.383 -14.405,-14.383Z" style="fill:#fefe74;"/><path d="M526.388,281.518c-0.128,3.146 -2.79,5.596 -5.941,5.468c-3.151,-0.128 -5.604,-2.786 -5.476,-5.932c0.712,-17.458 1.72,-35.542 6.279,-51.116c4.898,-16.731 13.828,-30.638 30.102,-38.578c2.833,-1.382 6.257,-0.207 7.641,2.621c1.385,2.829 0.209,6.248 -2.625,7.63c-13.208,6.444 -20.175,17.948 -24.15,31.528c-4.314,14.736 -5.156,31.86 -5.83,48.379Z" style="fill:#fefe74;"/><path d="M482.137,281.054c0.128,3.146 -2.325,5.804 -5.476,5.932c-3.151,0.128 -5.813,-2.322 -5.941,-5.468c-0.674,-16.519 -1.516,-33.643 -5.83,-48.379c-3.975,-13.58 -10.942,-25.084 -24.15,-31.528c-2.834,-1.382 -4.01,-4.801 -2.625,-7.63c1.384,-2.828 4.808,-4.003 7.641,-2.621c16.274,7.94 25.204,21.847 30.102,38.578c4.559,15.574 5.567,33.658 6.279,51.116Z" style="fill:#fefe74;"/><ellipse cx="414.191" cy="181.208" rx="15.302" ry="15.278" style="fill:#fefe74;"/><ellipse cx="584.346" cy="181.208" rx="15.302" ry="15.278" style="fill:#fefe74;"/><rect x="439.07" y="448.755" width="120.398" height="347.175" style="fill:#fefe74;"/></g></g></svg>