<?xml version="1.0" encoding="UTF-8" standalone="no"?><!DOCTYPE svg PUBLIC "-//W3C//DTD SVG 1.1//EN" "http://www.w3.org/Graphics/SVG/1.1/DTD/svg11.dtd"><svg width="100%" height="100%" viewBox="0 0 628 1001" version="1.1" xmlns="http://www.w3.org/2000/svg" xmlns:xlink="http://www.w3.org/1999/xlink" xml:space="preserve" xmlns:serif="http://www.serif.com/" style="fill-rule:evenodd;clip-rule:evenodd;stroke-linejoin:round;stroke-miterlimit:2;"><rect id="Black" x="0.756" y="0.986" width="627" height="1000" style="fill:#a6a6ff;fill-opacity:0;"/><clipPath id="_clip1"><rect id="Black1" serif:id="Black" x="0.756" y="0.986" width="627" height="1000"/></clipPath><g clip-path="url(#_clip1)"><g><path d="M627.981,577.774c0,-18.916 -7.514,-37.057 -20.89,-50.433c-13.375,-13.375 -31.516,-20.889 -50.432,-20.889l-135.274,-0l0,142.645l135.274,0c18.916,0 37.057,-7.514 50.432,-20.889c13.376,-13.376 20.89,-31.517 20.89,-50.433l0,-0.001Z"/><path d="M627.981,391.362c0,-18.915 -7.514,-37.056 -20.89,-50.432c-13.375,-13.375 -31.516,-20.89 -50.432,-20.89l-135.274,0l0,142.646l135.274,0c18.916,0 37.057,-7.514 50.432,-20.89c13.376,-13.375 20.89,-31.516 20.89,-50.432l0,-0.002Z"/><path d="M627.981,204.951c0,-18.916 -7.514,-37.057 -20.89,-50.432c-13.375,-13.376 -31.516,-20.89 -50.432,-20.89l-135.274,0l0,142.646l135.274,-0c18.916,-0 37.057,-7.514 50.432,-20.89c13.376,-13.375 20.89,-31.516 20.89,-50.432l0,-0.002Z"/><path d="M0.981,530.232c0,-31.525 12.523,-61.758 34.814,-84.049c22.292,-22.292 52.525,-34.815 84.05,-34.815c45.971,0 87.732,0 87.732,0l-0,237.729l-87.732,0c-31.525,0 -61.758,-12.523 -84.05,-34.814c-22.291,-22.291 -34.814,-52.525 -34.814,-84.05l0,-0.001Z"/><path d="M0.981,252.493c0,-31.524 12.523,-61.758 34.814,-84.049c22.292,-22.292 52.525,-34.815 84.05,-34.815l87.732,0l-0,237.729l-87.732,0c-31.525,0 -61.758,-12.523 -84.05,-34.814c-22.291,-22.291 -34.814,-52.525 -34.814,-84.05l0,-0.001Z"/><path d="M251.779,195.461c-0,-11.12 2.997,-21.931 8.546,-31.355c5.337,-9.04 12.911,-16.607 21.958,-21.94c9.429,-5.542 20.246,-8.537 31.372,-8.537c11.126,0 21.944,2.995 31.373,8.537c9.047,5.333 16.62,12.9 21.958,21.94c5.548,9.424 8.546,20.235 8.546,31.355c-0,34.126 -27.726,61.832 -61.877,61.832c-34.15,0 -61.876,-27.706 -61.876,-61.832Zm33.866,-15.379c-8.172,0 -14.807,6.63 -14.807,14.796c0,8.167 6.635,14.797 14.807,14.797c8.172,-0 14.807,-6.63 14.807,-14.797c-0,-8.166 -6.635,-14.796 -14.807,-14.796Zm56.182,0c-8.173,0 -14.807,6.63 -14.807,14.796c-0,8.167 6.634,14.797 14.807,14.797c8.172,-0 14.806,-6.63 14.806,-14.797c0,-8.166 -6.634,-14.796 -14.806,-14.796Z"/><path d="M341.531,119.898c-0.132,3.236 -2.868,5.756 -6.107,5.624c-3.238,-0.132 -5.76,-2.866 -5.628,-6.102c0.732,-17.961 1.768,-36.564 6.454,-52.586c5.034,-17.212 14.213,-31.518 30.94,-39.686c2.912,-1.422 6.432,-0.214 7.855,2.696c1.423,2.91 0.214,6.427 -2.698,7.849c-13.577,6.629 -20.738,18.464 -24.824,32.434c-4.434,15.16 -5.299,32.776 -5.992,49.771Z"/><path d="M296.046,119.42c0.132,3.236 -2.39,5.97 -5.628,6.102c-3.239,0.132 -5.975,-2.388 -6.107,-5.624c-0.693,-16.995 -1.558,-34.611 -5.992,-49.771c-4.086,-13.97 -11.247,-25.805 -24.824,-32.434c-2.912,-1.422 -4.121,-4.939 -2.698,-7.849c1.423,-2.91 4.943,-4.118 7.855,-2.696c16.727,8.168 25.906,22.474 30.94,39.686c4.687,16.022 5.722,34.625 6.454,52.586Z"/><ellipse cx="226.207" cy="16.703" rx="15.728" ry="15.717"/><ellipse cx="401.104" cy="16.703" rx="15.728" ry="15.717"/><rect x="251.779" y="291.942" width="123.753" height="357.155"/></g><g transform="matrix(0.894696,0,0,1,-219.486,0)"><g transform="matrix(255.859,0,0,255.859,960.262,896.267)"></g><text x="226.715px" y="896.267px" style="font-family:'Poppins-Regular', 'Poppins';font-size:255.859px;">Belles</text></g><g transform="matrix(1,0,0,0.999282,0,-0.42738)"><g transform="matrix(96.6847,0,0,96.6847,632.912,1001.26)"></g><text x="-5.013px" y="1001.26px" style="font-family:'Poppins-Regular', 'Poppins';font-size:96.685px;">in Economics</text></g></g></svg>