<?xml version="1.0" encoding="UTF-8" standalone="no"?><!DOCTYPE svg PUBLIC "-//W3C//DTD SVG 1.1//EN" "http://www.w3.org/Graphics/SVG/1.1/DTD/svg11.dtd"><svg width="100%" height="100%" viewBox="0 0 968 1001" version="1.1" xmlns="http://www.w3.org/2000/svg" xmlns:xlink="http://www.w3.org/1999/xlink" xml:space="preserve" xmlns:serif="http://www.serif.com/" style="fill-rule:evenodd;clip-rule:evenodd;stroke-linejoin:round;stroke-miterlimit:2;"><rect id="Black---no-text" serif:id="Black - no text" x="0.756" y="0.2" width="967" height="1000" style="fill:#a6a6ff;fill-opacity:0;"/><clipPath id="_clip1"><rect id="Black---no-text1" serif:id="Black - no text" x="0.756" y="0.2" width="967" height="1000"/></clipPath><g clip-path="url(#_clip1)"><g><path d="M967.756,890.806c-0,-60.778 -49.27,-110.047 -110.047,-110.047c-92.105,-0 -208.578,-0 -208.578,-0l-0,220.094l208.578,0c60.777,0 110.047,-49.27 110.047,-110.047c-0,-0 -0,-0 -0,-0Z"/><path d="M967.756,603.183c-0,-60.777 -49.27,-110.047 -110.047,-110.047l-208.578,0l-0,220.095l208.578,-0c60.777,-0 110.047,-49.27 110.047,-110.047c-0,-0.001 -0,-0.001 -0,-0.001Z"/><path d="M967.756,315.561c-0,-60.778 -49.27,-110.047 -110.047,-110.047c-92.105,-0 -208.578,-0 -208.578,-0l-0,220.094l208.578,0c60.777,0 110.047,-49.27 110.047,-110.047c-0,0 -0,-0 -0,-0Z"/><path d="M0.756,817.451c-0,-101.29 82.111,-183.401 183.401,-183.401l135.224,-0l-0,366.803l-135.224,0c-101.29,0 -183.401,-82.111 -183.401,-183.401l-0,-0.001Z"/><path d="M0.756,388.915c-0,-101.29 82.111,-183.401 183.401,-183.401l135.224,-0l-0,366.803l-135.224,-0c-101.29,-0 -183.401,-82.111 -183.401,-183.401l-0,-0.001Z"/><path d="M387.552,300.917c0,-17.158 4.624,-33.839 13.18,-48.38c8.233,-13.947 19.913,-25.624 33.866,-33.852c14.542,-8.551 31.225,-13.171 48.384,-13.171c17.16,-0 33.843,4.62 48.385,13.171c13.953,8.228 25.633,19.905 33.866,33.852c8.556,14.541 13.179,31.222 13.179,48.38c0,52.654 -42.76,95.404 -95.43,95.404c-52.669,-0 -95.43,-42.75 -95.43,-95.404Zm52.231,-23.729c-12.603,0 -22.836,10.23 -22.836,22.83c0,12.6 10.233,22.83 22.836,22.83c12.604,-0 22.836,-10.23 22.836,-22.83c0,-12.6 -10.232,-22.83 -22.836,-22.83Zm86.647,0c-12.604,0 -22.836,10.23 -22.836,22.83c-0,12.6 10.232,22.83 22.836,22.83c12.604,-0 22.836,-10.23 22.836,-22.83c0,-12.6 -10.232,-22.83 -22.836,-22.83Z"/><path d="M525.974,184.326c-0.204,4.994 -4.424,8.882 -9.418,8.679c-4.995,-0.204 -8.885,-4.423 -8.681,-9.416c1.129,-27.712 2.727,-56.416 9.954,-81.136c7.765,-26.557 21.921,-48.632 47.718,-61.234c4.491,-2.194 9.919,-0.33 12.114,4.159c2.195,4.49 0.33,9.917 -4.161,12.111c-20.938,10.229 -31.982,28.489 -38.284,50.044c-6.839,23.391 -8.173,50.572 -9.242,76.793Z"/><path d="M455.825,183.589c0.203,4.993 -3.686,9.212 -8.681,9.416c-4.994,0.203 -9.215,-3.685 -9.418,-8.679c-1.069,-26.221 -2.403,-53.402 -9.242,-76.793c-6.302,-21.555 -17.346,-39.815 -38.284,-50.044c-4.491,-2.194 -6.356,-7.621 -4.161,-12.111c2.194,-4.489 7.622,-6.353 12.114,-4.159c25.797,12.602 39.953,34.677 47.718,61.234c7.227,24.72 8.825,53.424 9.954,81.136Z"/><ellipse cx="348.114" cy="25.103" rx="24.257" ry="24.25"/><ellipse cx="617.851" cy="25.103" rx="24.257" ry="24.25"/><rect x="387.552" y="449.782" width="190.86" height="551.071"/></g></g></svg>