<?xml version="1.0" encoding="UTF-8" standalone="no"?><!DOCTYPE svg PUBLIC "-//W3C//DTD SVG 1.1//EN" "http://www.w3.org/Graphics/SVG/1.1/DTD/svg11.dtd"><svg width="100%" height="100%" viewBox="0 0 1001 368" version="1.1" xmlns="http://www.w3.org/2000/svg" xmlns:xlink="http://www.w3.org/1999/xlink" xml:space="preserve" xmlns:serif="http://www.serif.com/" style="fill-rule:evenodd;clip-rule:evenodd;stroke-linejoin:round;stroke-miterlimit:2;"><rect id="Dark-Background---Horizontal" serif:id="Dark Background - Horizontal" x="0.072" y="0.944" width="1000" height="367" style="fill:#a6a6ff;fill-opacity:0;"/><clipPath id="_clip1"><rect id="Dark-Background---Horizontal1" serif:id="Dark Background - Horizontal" x="0.072" y="0.944" width="1000" height="367"/></clipPath><g clip-path="url(#_clip1)"><g><path d="M354.293,327.555c0,-22.304 -18.081,-40.386 -40.386,-40.386c-33.727,0 -76.329,0 -76.329,0l-0,80.775l76.329,0c22.305,0 40.386,-18.081 40.386,-40.386c0,-0.001 0,-0.002 0,-0.003Z" style="fill:#fefe74;"/><path d="M354.293,221.998c0,-22.305 -18.081,-40.386 -40.386,-40.386c-33.727,-0 -76.329,-0 -76.329,-0l-0,80.775l76.329,-0c22.305,-0 40.386,-18.082 40.386,-40.386c0,-0.001 0,-0.002 0,-0.003Z" style="fill:#fefe74;"/><path d="M354.293,116.441c0,-22.305 -18.081,-40.386 -40.386,-40.386c-33.727,-0 -76.329,-0 -76.329,-0l-0,80.774l76.329,0c22.305,0 40.386,-18.081 40.386,-40.386c0,-0.001 0,-0.002 0,-0.002Z" style="fill:#fefe74;"/><path d="M0.072,300.635c-0,-17.851 7.091,-34.971 19.714,-47.594c12.622,-12.622 29.742,-19.714 47.594,-19.714l49.407,0l0,134.617l-49.407,0c-17.852,0 -34.972,-7.091 -47.594,-19.714c-12.623,-12.623 -19.714,-29.743 -19.714,-47.594l-0,-0.001Z" style="fill:#fefe74;"/><path d="M0.072,143.363c-0,-17.852 7.091,-34.972 19.714,-47.594c12.622,-12.623 29.742,-19.714 47.594,-19.714l49.407,-0l0,134.616l-49.407,0c-17.852,0 -34.972,-7.091 -47.594,-19.714c-12.623,-12.622 -19.714,-29.742 -19.714,-47.594l-0,-0Z" style="fill:#fefe74;"/><path d="M141.759,111.067c0,-6.296 1.694,-12.418 4.828,-17.755c3.016,-5.119 7.294,-9.404 12.405,-12.424c5.327,-3.138 11.439,-4.833 17.724,-4.833c6.286,-0 12.397,1.695 17.724,4.833c5.111,3.02 9.39,7.305 12.405,12.424c3.135,5.337 4.828,11.459 4.828,17.755c0,19.325 -15.664,35.014 -34.957,35.014c-19.293,-0 -34.957,-15.689 -34.957,-35.014Zm19.133,-8.708c-4.617,0 -8.365,3.754 -8.365,8.379c-0,4.624 3.748,8.378 8.365,8.378c4.617,0 8.365,-3.754 8.365,-8.378c-0,-4.625 -3.748,-8.379 -8.365,-8.379Zm31.739,0c-4.616,0 -8.365,3.754 -8.365,8.379c0,4.624 3.749,8.378 8.365,8.378c4.617,0 8.365,-3.754 8.365,-8.378c0,-4.625 -3.748,-8.379 -8.365,-8.379Z" style="fill:#fefe74;"/><path d="M192.464,68.279c-0.074,1.832 -1.62,3.259 -3.45,3.185c-1.829,-0.075 -3.254,-1.623 -3.18,-3.456c0.414,-10.17 0.999,-20.705 3.647,-29.777c2.844,-9.746 8.029,-17.848 17.479,-22.473c1.646,-0.805 3.634,-0.121 4.438,1.527c0.804,1.648 0.121,3.639 -1.524,4.444c-7.67,3.754 -11.716,10.456 -14.024,18.367c-2.505,8.584 -2.994,18.56 -3.386,28.183Z" style="fill:#fefe74;"/><path d="M166.768,68.008c0.075,1.833 -1.35,3.381 -3.18,3.456c-1.829,0.074 -3.375,-1.353 -3.45,-3.185c-0.391,-9.623 -0.88,-19.599 -3.385,-28.183c-2.309,-7.911 -6.354,-14.613 -14.024,-18.367c-1.645,-0.805 -2.328,-2.796 -1.524,-4.444c0.804,-1.648 2.792,-2.332 4.437,-1.527c9.45,4.625 14.636,12.727 17.48,22.473c2.647,9.072 3.232,19.607 3.646,29.777Z" style="fill:#fefe74;"/><ellipse cx="127.312" cy="9.844" rx="8.886" ry="8.9" style="fill:#fefe74;"/><ellipse cx="226.12" cy="9.844" rx="8.886" ry="8.9" style="fill:#fefe74;"/><rect x="141.759" y="165.701" width="69.914" height="202.243" style="fill:#fefe74;"/></g><g transform="matrix(0.892619,0,0,1,-165.173,-4.54747e-13)"><g transform="matrix(240,0,0,240,1317.66,253.655)"></g><text x="629.58px" y="253.655px" style="font-family:'Poppins-Regular', 'Poppins';font-size:240px;fill:#fff;">Belles</text></g><g transform="matrix(0.998397,0,0,1,-0.656721,0)"><g transform="matrix(90.6269,0,0,90.6269,1006.96,367.128)"></g><text x="409.002px" y="367.128px" style="font-family:'Poppins-Regular', 'Poppins';font-size:90.627px;fill:#fff;">in Economics</text></g></g></svg>