<?xml version="1.0" encoding="UTF-8" standalone="no"?><!DOCTYPE svg PUBLIC "-//W3C//DTD SVG 1.1//EN" "http://www.w3.org/Graphics/SVG/1.1/DTD/svg11.dtd"><svg width="100%" height="100%" viewBox="0 0 676 1001" version="1.1" xmlns="http://www.w3.org/2000/svg" xmlns:xlink="http://www.w3.org/1999/xlink" xml:space="preserve" xmlns:serif="http://www.serif.com/" style="fill-rule:evenodd;clip-rule:evenodd;stroke-linejoin:round;stroke-miterlimit:2;"><rect id="Standard" x="0.372" y="0.986" width="675" height="1000" style="fill:#fff;fill-opacity:0;"/><clipPath id="_clip1"><rect id="Standard1" serif:id="Standard" x="0.372" y="0.986" width="675" height="1000"/></clipPath><g clip-path="url(#_clip1)"><g><path d="M90.432,407.249c-52.855,-22.393 -89.932,-74.735 -89.932,-135.733c-0,-81.381 65.997,-147.353 147.409,-147.353l85.998,-0c16.754,-0 30.386,13.365 30.815,30.015c5.776,-5.686 12.147,-10.635 18.963,-14.784c-0.55,-13.472 -1.243,-27.237 -4.739,-39.194c-2,-6.839 -4.74,-13.19 -11.384,-16.436c-2.192,-1.071 -4.198,-2.37 -6.003,-3.856c-3.139,0.791 -6.426,1.211 -9.81,1.211c-22.121,-0 -40.081,-17.953 -40.081,-40.066c-0,-22.114 17.96,-40.067 40.081,-40.067c17.235,0 31.944,10.898 37.601,26.17c1.675,0.484 3.331,1.118 4.951,1.909c21.988,10.741 35.033,28.771 42.175,51.03c7.142,-22.259 20.186,-40.289 42.174,-51.03c2.131,-1.041 4.325,-1.81 6.541,-2.321c5.768,-15.056 20.367,-25.758 37.446,-25.758c22.122,0 40.082,17.953 40.082,40.067c-0,22.113 -17.96,40.066 -40.082,40.066c-3.777,-0 -7.432,-0.524 -10.898,-1.501c-1.893,1.607 -4.016,3.006 -6.349,4.146c-6.645,3.246 -9.384,9.597 -11.384,16.436c-3.346,11.442 -4.124,24.538 -4.668,37.449c7.944,4.483 15.33,10.023 21.94,16.529c0.429,-16.65 14.061,-30.015 30.815,-30.015l132.483,-0c55.739,-0 100.924,45.168 100.924,100.886c-0,40.18 -23.499,74.875 -57.508,91.1c34.009,16.225 57.508,50.919 57.508,91.1c-0,40.18 -23.499,74.875 -57.508,91.1c34.009,16.225 57.508,50.919 57.508,91.1c-0,55.717 -45.185,100.886 -100.924,100.886l-426.667,-0c-81.412,-0 -147.409,-65.973 -147.409,-147.354c-0,-60.998 37.077,-113.339 89.932,-135.732Z" style="fill:#a6a6ff;"/><path d="M644.314,589.447c-0,-18.488 -7.345,-36.219 -20.418,-49.292c-13.073,-13.073 -30.804,-20.418 -49.292,-20.418c-58.354,0 -132.15,0 -132.15,0l-0,139.423l132.15,0c18.488,0 36.219,-7.344 49.292,-20.417c13.073,-13.073 20.418,-30.804 20.418,-49.293l-0,-0.003Z" style="fill:#fefe74;"/><path d="M644.314,407.247c-0,-18.488 -7.345,-36.219 -20.418,-49.292c-13.073,-13.073 -30.804,-20.418 -49.292,-20.418c-58.354,0 -132.15,0 -132.15,0l-0,139.423l132.15,0c18.488,0 36.219,-7.344 49.292,-20.417c13.073,-13.073 20.418,-30.804 20.418,-49.293l-0,-0.003Z" style="fill:#fefe74;"/><path d="M644.314,225.047c-0,-18.488 -7.345,-36.219 -20.418,-49.292c-13.073,-13.074 -30.804,-20.418 -49.292,-20.418l-132.15,0l-0,139.423l132.15,0c18.488,0 36.219,-7.344 49.292,-20.417c13.073,-13.074 20.418,-30.805 20.418,-49.293l-0,-0.003Z" style="fill:#fefe74;"/><path d="M31.686,542.981c0,-64.164 52.015,-116.179 116.179,-116.179l85.681,-0l0,232.358l-85.681,0c-64.164,0 -116.179,-52.015 -116.179,-116.179l0,-0Z" style="fill:#fefe74;"/><path d="M31.686,271.516c0,-64.164 52.015,-116.179 116.179,-116.179l85.681,0l0,232.359l-85.681,-0c-64.164,-0 -116.179,-52.015 -116.179,-116.179l0,-0.001Z" style="fill:#fefe74;"/><path d="M319.988,141.449c0.129,3.163 -2.335,5.835 -5.5,5.964c-3.164,0.129 -5.837,-2.334 -5.966,-5.497c-0.677,-16.611 -1.523,-33.83 -5.855,-48.647c-3.993,-13.654 -10.99,-25.221 -24.255,-31.701c-2.845,-1.39 -4.026,-4.828 -2.636,-7.672c1.39,-2.844 4.829,-4.025 7.675,-2.635c16.343,7.984 25.312,21.967 30.231,38.79c4.579,15.66 5.59,33.843 6.306,51.398Z" style="fill:#fefe74;"/><ellipse cx="251.749" cy="41.053" rx="15.368" ry="15.362" style="fill:#fefe74;"/><path d="M364.43,141.916c-0.129,3.163 -2.803,5.626 -5.967,5.497c-3.164,-0.129 -5.628,-2.801 -5.5,-5.964c0.716,-17.555 1.728,-35.738 6.307,-51.398c4.919,-16.823 13.887,-30.806 30.231,-38.79c2.845,-1.39 6.284,-0.209 7.674,2.635c1.391,2.844 0.209,6.282 -2.636,7.672c-13.265,6.48 -20.262,18.047 -24.254,31.701c-4.333,14.817 -5.178,32.036 -5.855,48.647Z" style="fill:#fefe74;"/><ellipse cx="422.637" cy="41.053" rx="15.368" ry="15.362" style="fill:#fefe74;"/><path d="M276.735,215.772c0,-10.869 2.929,-21.436 8.35,-30.647c5.215,-8.835 12.615,-16.232 21.455,-21.444c9.213,-5.417 19.782,-8.344 30.653,-8.344c10.871,0 21.44,2.927 30.654,8.344c8.839,5.212 16.239,12.609 21.454,21.444c5.421,9.211 8.35,19.778 8.35,30.647c0,33.355 -27.09,60.436 -60.458,60.436c-33.368,-0 -60.458,-27.081 -60.458,-60.436Zm33.09,-15.031c-7.985,-0 -14.467,6.48 -14.467,14.462c-0,7.981 6.482,14.462 14.467,14.462c7.985,-0 14.467,-6.481 14.467,-14.462c0,-7.982 -6.482,-14.462 -14.467,-14.462Zm54.894,-0c-7.985,-0 -14.468,6.48 -14.468,14.462c0,7.981 6.483,14.462 14.468,14.462c7.984,-0 14.467,-6.481 14.467,-14.462c0,-7.982 -6.483,-14.462 -14.467,-14.462Z" style="fill:#fefe74;"/><rect x="276.735" y="310.073" width="120.916" height="349.087" style="fill:#fefe74;"/></g><g transform="matrix(0.894392,0,0,1,-211.829,0)"><g transform="matrix(250.079,0,0,250.079,969.989,898.633)"></g><text x="253.013px" y="898.633px" style="font-family:'Poppins-Regular', 'Poppins';font-size:250.079px;fill:#a6a6ff;">Belles</text></g><g transform="matrix(1,0,0,0.999621,0,-0.211619)"><g transform="matrix(94.4684,0,0,94.4684,649.131,1000.73)"></g><text x="25.829px" y="1000.73px" style="font-family:'Poppins-Regular', 'Poppins';font-size:94.468px;fill:#a6a6ff;">in Economics</text></g></g></svg>