<?xml version="1.0" encoding="UTF-8" standalone="no"?><!DOCTYPE svg PUBLIC "-//W3C//DTD SVG 1.1//EN" "http://www.w3.org/Graphics/SVG/1.1/DTD/svg11.dtd"><svg width="100%" height="100%" viewBox="0 0 980 1001" version="1.1" xmlns="http://www.w3.org/2000/svg" xmlns:xlink="http://www.w3.org/1999/xlink" xml:space="preserve" xmlns:serif="http://www.serif.com/" style="fill-rule:evenodd;clip-rule:evenodd;stroke-linejoin:round;stroke-miterlimit:2;"><rect id="Standard---no-text" serif:id="Standard - no text" x="0.372" y="0.2" width="979" height="1000" style="fill:#fff;fill-opacity:0;"/><clipPath id="_clip1"><rect id="Standard---no-text1" serif:id="Standard - no text" x="0.372" y="0.2" width="979" height="1000"/></clipPath><g clip-path="url(#_clip1)"><g><path d="M832.995,1000.2l-618.825,0c-118.077,0 -213.798,-95.703 -213.798,-213.758c0,-88.486 53.776,-164.415 130.435,-196.899c-76.659,-32.485 -130.435,-108.413 -130.435,-196.9c0,-118.055 95.721,-213.758 213.798,-213.758l138.612,0c8.175,0 16.016,3.248 21.797,9.029c5.78,5.78 9.028,13.621 9.028,21.796l0,12.694c8.287,-8.155 17.508,-15.365 27.488,-21.452c-0.799,-19.534 -1.805,-39.491 -6.874,-56.828c-2.9,-9.921 -6.873,-19.135 -16.51,-23.843c-3.179,-1.553 -6.088,-3.438 -8.706,-5.594c-4.554,1.147 -9.32,1.757 -14.228,1.757c-32.085,-0 -58.133,-26.044 -58.133,-58.122c-0,-32.078 26.048,-58.122 58.133,-58.122c24.997,0 46.33,15.809 54.535,37.964c2.429,0.701 4.831,1.621 7.181,2.768c31.89,15.581 50.81,41.737 61.168,74.026c10.359,-32.289 29.279,-58.445 61.169,-74.026c3.091,-1.509 6.272,-2.625 9.487,-3.367c8.365,-21.84 29.539,-37.365 54.31,-37.365c32.085,0 58.133,26.044 58.133,58.122c0,32.078 -26.048,58.122 -58.133,58.122c-5.477,-0 -10.779,-0.759 -15.805,-2.178c-2.747,2.331 -5.826,4.361 -9.21,6.015c-9.637,4.708 -13.61,13.922 -16.51,23.843c-4.85,16.588 -5.981,35.574 -6.769,54.292c11.647,6.586 22.336,14.669 31.804,23.988l0,-12.694c0,-8.175 3.248,-16.016 9.029,-21.796c5.78,-5.781 13.621,-9.029 21.796,-9.029l206.033,0c80.842,0 146.377,65.524 146.377,146.35c0,58.288 -34.082,108.617 -83.408,132.154c49.326,23.536 83.408,73.866 83.408,132.154c0,58.287 -34.082,108.617 -83.408,132.153c49.326,23.537 83.408,73.866 83.408,132.154c0,80.827 -65.535,146.35 -146.377,146.35Z" style="fill:#a6a6ff;"/><path d="M934.14,853.85c0,-26.821 -10.654,-52.543 -29.619,-71.507c-18.965,-18.965 -44.686,-29.619 -71.507,-29.619l-191.645,-0l-0,202.253l191.645,0c26.821,0 52.542,-10.654 71.507,-29.619c18.965,-18.965 29.619,-44.687 29.619,-71.507l0,-0.001Z" style="fill:#fefe74;"/><path d="M934.14,589.542c0,-26.82 -10.654,-52.542 -29.619,-71.507c-18.965,-18.965 -44.686,-29.619 -71.507,-29.619l-191.645,-0l-0,202.253l191.645,0c26.821,0 52.542,-10.654 71.507,-29.619c18.965,-18.965 29.619,-44.686 29.619,-71.507l0,-0.001Z" style="fill:#fefe74;"/><path d="M934.14,325.234c0,-26.82 -10.654,-52.542 -29.619,-71.507c-18.965,-18.964 -44.686,-29.619 -71.507,-29.619l-191.645,0l-0,202.254l191.645,-0c26.821,-0 52.542,-10.655 71.507,-29.619c18.965,-18.965 29.619,-44.687 29.619,-71.507l0,-0.002Z" style="fill:#fefe74;"/><path d="M45.604,775.896c-0,-41.901 16.645,-82.086 46.274,-111.715c29.628,-29.629 69.814,-46.274 111.715,-46.274c69.127,0 134.782,0 134.782,0l0,337.07l-134.782,0c-41.901,0 -82.087,-16.645 -111.715,-46.274c-29.629,-29.629 -46.274,-69.814 -46.274,-111.715l-0,-21.092Z" style="fill:#fefe74;"/><path d="M45.604,382.097c-0,-41.901 16.645,-82.086 46.274,-111.715c29.628,-29.629 69.814,-46.274 111.715,-46.274l134.782,0l0,337.07l-134.782,0c-41.901,0 -82.087,-16.645 -111.715,-46.274c-29.629,-29.628 -46.274,-69.813 -46.274,-111.715l-0,-21.092Z" style="fill:#fefe74;"/><path d="M463.748,203.961c0.187,4.588 -3.387,8.465 -7.976,8.652c-4.59,0.187 -8.467,-3.386 -8.654,-7.975c-0.982,-24.095 -2.208,-49.074 -8.492,-70.568c-5.791,-19.808 -15.939,-36.588 -35.178,-45.988c-4.127,-2.016 -5.84,-7.002 -3.823,-11.128c2.016,-4.126 7.004,-5.839 11.13,-3.823c23.705,11.581 36.712,31.866 43.847,56.27c6.641,22.717 8.108,49.095 9.146,74.56Z" style="fill:#fefe74;"/><ellipse cx="364.777" cy="58.322" rx="22.289" ry="22.285" style="fill:#fefe74;"/><path d="M528.205,204.638c-0.187,4.589 -4.064,8.162 -8.654,7.975c-4.589,-0.187 -8.163,-4.064 -7.976,-8.652c1.037,-25.465 2.505,-51.843 9.146,-74.56c7.135,-24.404 20.142,-44.689 43.846,-56.27c4.127,-2.016 9.115,-0.303 11.131,3.823c2.017,4.126 0.304,9.112 -3.823,11.128c-19.24,9.4 -29.387,26.18 -35.178,45.988c-6.284,21.494 -7.51,46.473 -8.492,70.568Z" style="fill:#fefe74;"/><ellipse cx="612.627" cy="58.322" rx="22.289" ry="22.285" style="fill:#fefe74;"/><path d="M401.015,311.778c0,-15.767 4.248,-31.096 12.111,-44.458c7.564,-12.817 18.297,-23.547 31.117,-31.108c13.363,-7.858 28.692,-12.104 44.459,-12.104c15.767,0 31.096,4.246 44.459,12.104c12.82,7.561 23.553,18.291 31.117,31.108c7.863,13.362 12.111,28.691 12.111,44.458c-0,48.386 -39.291,87.67 -87.687,87.67c-48.396,0 -87.687,-39.284 -87.687,-87.67Zm47.993,-21.805c-11.581,-0 -20.983,9.4 -20.983,20.979c-0,11.579 9.402,20.979 20.983,20.979c11.581,0 20.983,-9.4 20.983,-20.979c0,-11.579 -9.402,-20.979 -20.983,-20.979Zm79.616,-0c-11.581,-0 -20.983,9.4 -20.983,20.979c0,11.579 9.402,20.979 20.983,20.979c11.581,0 20.983,-9.4 20.983,-20.979c0,-11.579 -9.402,-20.979 -20.983,-20.979Z" style="fill:#fefe74;"/><rect x="401.015" y="448.576" width="175.373" height="506.401" style="fill:#fefe74;"/></g></g></svg>