<?xml version="1.0" encoding="UTF-8" standalone="no"?><!DOCTYPE svg PUBLIC "-//W3C//DTD SVG 1.1//EN" "http://www.w3.org/Graphics/SVG/1.1/DTD/svg11.dtd"><svg width="100%" height="100%" viewBox="0 0 1001 368" version="1.1" xmlns="http://www.w3.org/2000/svg" xmlns:xlink="http://www.w3.org/1999/xlink" xml:space="preserve" xmlns:serif="http://www.serif.com/" style="fill-rule:evenodd;clip-rule:evenodd;stroke-linejoin:round;stroke-miterlimit:2;"><rect id="Standard---Horizontal" serif:id="Standard - Horizontal" x="0.372" y="0.944" width="1000" height="367" style="fill:#a6a6ff;fill-opacity:0;"/><g id="Standard---Horizontal1" serif:id="Standard - Horizontal"><g transform="matrix(0.892591,0,0,1,-165.184,0)"><g transform="matrix(240.008,0,0,240.008,1318.05,253.651)"></g><text x="629.949px" y="253.651px" style="font-family:'Poppins-Regular', 'Poppins';font-size:240.008px;fill:#a6a6ff;">Belles</text></g><g><path d="M47.563,217.233c-27.735,-11.922 -47.191,-39.788 -47.191,-72.262c0,-43.327 34.632,-78.45 77.352,-78.45l44.169,0c4.544,0 8.901,1.805 12.115,5.019c2.896,2.896 4.648,6.723 4.965,10.778c3.043,-3.002 6.4,-5.614 9.993,-7.802c-0.288,-7.135 -0.657,-14.42 -2.482,-20.752c-1.05,-3.641 -2.487,-7.022 -5.974,-8.75c-1.15,-0.57 -2.202,-1.262 -3.149,-2.053c-1.648,0.421 -3.372,0.645 -5.148,0.645c-11.608,-0 -21.032,-9.558 -21.032,-21.331c-0,-11.773 9.424,-21.331 21.032,-21.331c9.044,0 16.762,5.802 19.731,13.933c0.879,0.257 1.748,0.595 2.598,1.016c11.537,5.718 18.383,15.317 22.13,27.167c3.748,-11.85 10.593,-21.449 22.131,-27.167c1.118,-0.554 2.269,-0.964 3.432,-1.236c3.027,-8.015 10.687,-13.713 19.65,-13.713c11.608,0 21.032,9.558 21.032,21.331c0,11.773 -9.424,21.331 -21.032,21.331c-1.982,-0 -3.9,-0.279 -5.719,-0.8c-0.994,0.856 -2.107,1.601 -3.332,2.208c-3.486,1.728 -4.924,5.109 -5.973,8.75c-1.747,6.062 -2.16,12.995 -2.445,19.836c4.185,2.363 8.075,5.284 11.554,8.717c0.682,-8.837 8.069,-15.796 17.082,-15.796l68.561,0c29.249,0 52.959,24.048 52.959,53.711c0,21.391 -12.331,39.862 -30.177,48.5c17.846,8.638 30.177,27.109 30.177,48.501c0,21.391 -12.331,39.862 -30.177,48.5c17.846,8.638 30.177,27.109 30.177,48.501c0,29.663 -23.71,53.71 -52.959,53.71l-223.889,0c-42.72,0 -77.352,-35.123 -77.352,-78.449c0,-32.475 19.456,-60.341 47.191,-72.262Z" style="fill:#a6a6ff;"/><path d="M338.207,314.232c0,-9.843 -3.91,-19.282 -10.869,-26.242c-6.96,-6.96 -16.4,-10.87 -26.243,-10.87c-30.534,0 -68.812,0 -68.812,0l0,74.227l68.812,0c9.843,0 19.283,-3.91 26.243,-10.87c6.959,-6.96 10.869,-16.399 10.869,-26.242c0,-0.001 0,-0.002 0,-0.003Z" style="fill:#fefe74;"/><path d="M338.207,217.231c0,-9.842 -3.91,-19.282 -10.869,-26.242c-6.96,-6.96 -16.4,-10.87 -26.243,-10.87c-30.534,0 -68.812,0 -68.812,0l0,74.227l68.812,0c9.843,0 19.283,-3.91 26.243,-10.87c6.959,-6.959 10.869,-16.399 10.869,-26.242c0,-0.001 0,-0.002 0,-0.003Z" style="fill:#fefe74;"/><path d="M338.207,120.23c0,-9.842 -3.91,-19.282 -10.869,-26.242c-6.96,-6.96 -16.4,-10.87 -26.243,-10.87c-30.534,0 -68.812,0 -68.812,0l0,74.227l68.812,0c9.843,0 19.283,-3.91 26.243,-10.869c6.959,-6.96 10.869,-16.4 10.869,-26.243c0,-0.001 0,-0.002 0,-0.003Z" style="fill:#fefe74;"/><path d="M16.737,289.494c-0,-34.159 27.692,-61.852 61.852,-61.852c23.208,0 44.072,0 44.072,0l-0,123.705l-44.072,0c-34.16,0 -61.852,-27.692 -61.852,-61.852c-0,-0 -0,-0 -0,-0.001Z" style="fill:#fefe74;"/><path d="M16.737,144.97c-0,-34.16 27.692,-61.852 61.852,-61.852c23.208,0 44.072,0 44.072,0l-0,123.705l-44.072,0c-34.16,0 -61.852,-27.692 -61.852,-61.852c-0,-0 -0,-0 -0,-0.001Z" style="fill:#fefe74;"/><path d="M168.021,75.724c0.067,1.684 -1.226,3.107 -2.886,3.176c-1.661,0.068 -3.064,-1.243 -3.131,-2.927c-0.356,-8.843 -0.799,-18.01 -3.073,-25.899c-2.095,-7.269 -5.766,-13.427 -12.727,-16.877c-1.493,-0.74 -2.113,-2.57 -1.383,-4.084c0.729,-1.515 2.534,-2.143 4.027,-1.403c8.576,4.25 13.282,11.695 15.863,20.651c2.403,8.337 2.934,18.017 3.31,27.363Z" style="fill:#fefe74;"/><ellipse cx="132.213" cy="22.275" rx="8.064" ry="8.178" style="fill:#fefe74;"/><path d="M191.341,75.973c-0.068,1.684 -1.471,2.995 -3.131,2.927c-1.66,-0.069 -2.954,-1.492 -2.886,-3.176c0.376,-9.346 0.907,-19.026 3.309,-27.363c2.581,-8.956 7.288,-16.401 15.864,-20.651c1.493,-0.74 3.297,-0.112 4.027,1.403c0.729,1.514 0.11,3.344 -1.383,4.084c-6.961,3.45 -10.633,9.608 -12.728,16.877c-2.273,7.889 -2.717,17.056 -3.072,25.899Z" style="fill:#fefe74;"/><ellipse cx="221.885" cy="22.275" rx="8.064" ry="8.178" style="fill:#fefe74;"/><path d="M145.324,115.293c-0,-5.786 1.537,-11.412 4.381,-16.316c2.737,-4.704 6.62,-8.642 11.259,-11.417c4.834,-2.884 10.38,-4.442 16.085,-4.442c5.704,0 11.25,1.558 16.085,4.442c4.638,2.775 8.521,6.713 11.258,11.417c2.845,4.904 4.382,10.53 4.382,16.316c-0,17.758 -14.216,32.175 -31.725,32.175c-17.51,0 -31.725,-14.417 -31.725,-32.175Zm17.364,-8.002c-4.19,-0 -7.592,3.45 -7.592,7.699c-0,4.249 3.402,7.699 7.592,7.699c4.19,0 7.591,-3.45 7.591,-7.699c0,-4.249 -3.401,-7.699 -7.591,-7.699Zm28.805,-0c-4.19,-0 -7.592,3.45 -7.592,7.699c-0,4.249 3.402,7.699 7.592,7.699c4.189,0 7.591,-3.45 7.591,-7.699c0,-4.249 -3.402,-7.699 -7.591,-7.699Z" style="fill:#fefe74;"/><rect x="145.324" y="165.498" width="63.45" height="185.849" style="fill:#fefe74;"/></g><g transform="matrix(0.998365,0,0,1,-0.669116,0)"><g transform="matrix(90.6297,0,0,90.6297,1007.3,367.128)"></g><text x="409.328px" y="367.128px" style="font-family:'Poppins-Regular', 'Poppins';font-size:90.63px;fill:#a6a6ff;">in Economics</text></g></g></svg>