<?xml version="1.0" encoding="UTF-8" standalone="no"?><!DOCTYPE svg PUBLIC "-//W3C//DTD SVG 1.1//EN" "http://www.w3.org/Graphics/SVG/1.1/DTD/svg11.dtd"><svg width="100%" height="100%" viewBox="0 0 968 1001" version="1.1" xmlns="http://www.w3.org/2000/svg" xmlns:xlink="http://www.w3.org/1999/xlink" xml:space="preserve" xmlns:serif="http://www.serif.com/" style="fill-rule:evenodd;clip-rule:evenodd;stroke-linejoin:round;stroke-miterlimit:2;"><rect id="White---no-text" serif:id="White - no text" x="0.606" y="0.2" width="967" height="1000" style="fill:#a6a6ff;fill-opacity:0;"/><clipPath id="_clip1"><rect id="White---no-text1" serif:id="White - no text" x="0.606" y="0.2" width="967" height="1000"/></clipPath><g clip-path="url(#_clip1)"><g><path d="M967.606,890.153c-0,-60.778 -49.27,-110.047 -110.047,-110.047l-208.579,-0l0,220.094l208.579,0c60.777,0 110.047,-49.269 110.047,-110.047l-0,-0Z" style="fill:#fff;"/><path d="M967.606,602.53c-0,-60.777 -49.27,-110.047 -110.047,-110.047l-208.579,0l0,220.095l208.579,-0c60.777,-0 110.047,-49.27 110.047,-110.047l-0,-0.001Z" style="fill:#fff;"/><path d="M967.606,314.908c-0,-60.777 -49.27,-110.047 -110.047,-110.047l-208.579,-0l0,220.094c0,0 116.473,0 208.579,0c60.777,0 110.047,-49.269 110.047,-110.047l-0,-0Z" style="fill:#fff;"/><path d="M0.606,816.798c-0,-101.29 82.111,-183.401 183.401,-183.401l135.224,-0l-0,366.803l-135.224,0c-101.29,0 -183.401,-82.111 -183.401,-183.401l-0,-0.001Z" style="fill:#fff;"/><path d="M0.606,388.262c-0,-101.29 82.111,-183.401 183.401,-183.401l135.224,-0l-0,366.803l-135.224,0c-101.29,0 -183.401,-82.111 -183.401,-183.401l-0,-0.001Z" style="fill:#fff;"/><path d="M387.402,300.264c0,-17.158 4.623,-33.839 13.18,-48.379c8.232,-13.948 19.913,-25.624 33.865,-33.853c14.543,-8.551 31.226,-13.171 48.385,-13.171c17.159,-0 33.842,4.62 48.385,13.171c13.953,8.229 25.633,19.905 33.865,33.853c8.557,14.54 13.18,31.221 13.18,48.379c0,52.655 -42.761,95.404 -95.43,95.404c-52.669,-0 -95.43,-42.749 -95.43,-95.404Zm52.231,-23.729c-12.604,0 -22.836,10.23 -22.836,22.83c-0,12.6 10.232,22.83 22.836,22.83c12.604,-0 22.836,-10.23 22.836,-22.83c0,-12.6 -10.232,-22.83 -22.836,-22.83Zm86.647,0c-12.604,0 -22.836,10.23 -22.836,22.83c-0,12.6 10.232,22.83 22.836,22.83c12.603,-0 22.836,-10.23 22.836,-22.83c-0,-12.6 -10.233,-22.83 -22.836,-22.83Z" style="fill:#fff;"/><path d="M525.824,183.674c-0.204,4.993 -4.424,8.881 -9.419,8.678c-4.994,-0.203 -8.884,-4.422 -8.68,-9.416c1.129,-27.711 2.726,-56.416 9.954,-81.136c7.764,-26.557 21.92,-48.631 47.718,-61.234c4.491,-2.194 9.919,-0.33 12.114,4.16c2.194,4.49 0.33,9.916 -4.161,12.11c-20.939,10.229 -31.983,28.49 -38.285,50.044c-6.838,23.391 -8.173,50.573 -9.241,76.794Z" style="fill:#fff;"/><path d="M455.675,182.936c0.203,4.994 -3.687,9.213 -8.681,9.416c-4.995,0.203 -9.215,-3.685 -9.418,-8.678c-1.069,-26.221 -2.403,-53.403 -9.242,-76.794c-6.302,-21.554 -17.346,-39.815 -38.284,-50.044c-4.492,-2.194 -6.356,-7.62 -4.161,-12.11c2.194,-4.49 7.622,-6.354 12.113,-4.16c25.798,12.603 39.954,34.677 47.718,61.234c7.228,24.72 8.825,53.425 9.955,81.136Z" style="fill:#fff;"/><ellipse cx="347.963" cy="24.451" rx="24.257" ry="24.25" style="fill:#fff;"/><ellipse cx="617.701" cy="24.451" rx="24.257" ry="24.25" style="fill:#fff;"/><rect x="387.402" y="449.129" width="190.86" height="551.071" style="fill:#fff;"/></g></g></svg>