<?xml version="1.0" encoding="UTF-8" standalone="no"?><!DOCTYPE svg PUBLIC "-//W3C//DTD SVG 1.1//EN" "http://www.w3.org/Graphics/SVG/1.1/DTD/svg11.dtd"><svg width="100%" height="100%" viewBox="0 0 1001 368" version="1.1" xmlns="http://www.w3.org/2000/svg" xmlns:xlink="http://www.w3.org/1999/xlink" xml:space="preserve" xmlns:serif="http://www.serif.com/" style="fill-rule:evenodd;clip-rule:evenodd;stroke-linejoin:round;stroke-miterlimit:2;"><rect id="White---Horizontal" serif:id="White - Horizontal" x="0.606" y="0.956" width="1000" height="367" style="fill-opacity:0;"/><clipPath id="_clip1"><rect id="White---Horizontal1" serif:id="White - Horizontal" x="0.606" y="0.956" width="1000" height="367"/></clipPath><g clip-path="url(#_clip1)"><g><path d="M354.827,327.567c0,-22.305 -18.081,-40.386 -40.386,-40.386c-33.727,-0 -76.329,-0 -76.329,-0l-0,80.775l76.329,-0c22.305,-0 40.386,-18.082 40.386,-40.386c0,-0.001 0,-0.002 0,-0.003Z" style="fill:#fff;"/><path d="M354.827,222.01c0,-22.305 -18.081,-40.386 -40.386,-40.386c-33.727,-0 -76.329,-0 -76.329,-0l-0,80.774l76.329,0c22.305,0 40.386,-18.081 40.386,-40.386c0,-0.001 0,-0.002 0,-0.002Z" style="fill:#fff;"/><path d="M354.827,116.452c0,-22.304 -18.081,-40.386 -40.386,-40.386c-33.727,0 -76.329,0 -76.329,0l-0,80.775l76.329,-0c22.305,-0 40.386,-18.082 40.386,-40.386c0,-0.001 0,-0.002 0,-0.003Z" style="fill:#fff;"/><path d="M0.606,300.647c-0,-17.851 7.091,-34.971 19.714,-47.594c12.622,-12.623 29.742,-19.714 47.594,-19.714c25.909,-0 49.407,-0 49.407,-0l0,134.617l-49.407,-0c-17.852,-0 -34.972,-7.092 -47.594,-19.714c-12.623,-12.623 -19.714,-29.743 -19.714,-47.594l-0,-0.001Z" style="fill:#fff;"/><path d="M0.606,143.374c-0,-17.851 7.091,-34.971 19.714,-47.594c12.622,-12.623 29.742,-19.714 47.594,-19.714c25.909,0 49.407,0 49.407,0l0,134.617l-49.407,-0c-17.852,-0 -34.972,-7.091 -47.594,-19.714c-12.623,-12.623 -19.714,-29.743 -19.714,-47.594l-0,-0.001Z" style="fill:#fff;"/><path d="M142.293,111.079c0,-6.297 1.694,-12.419 4.828,-17.755c3.015,-5.119 7.294,-9.404 12.405,-12.424c5.327,-3.138 11.438,-4.834 17.724,-4.834c6.286,0 12.397,1.696 17.724,4.834c5.111,3.02 9.39,7.305 12.405,12.424c3.134,5.336 4.828,11.458 4.828,17.755c-0,19.324 -15.664,35.013 -34.957,35.013c-19.293,0 -34.957,-15.689 -34.957,-35.013Zm19.133,-8.708c-4.617,-0 -8.365,3.754 -8.365,8.378c-0,4.624 3.748,8.379 8.365,8.379c4.617,-0 8.365,-3.755 8.365,-8.379c-0,-4.624 -3.748,-8.378 -8.365,-8.378Zm31.739,-0c-4.617,-0 -8.365,3.754 -8.365,8.378c0,4.624 3.748,8.379 8.365,8.379c4.617,-0 8.365,-3.755 8.365,-8.379c0,-4.624 -3.748,-8.378 -8.365,-8.378Z" style="fill:#fff;"/><path d="M192.998,68.29c-0.074,1.833 -1.62,3.26 -3.45,3.185c-1.829,-0.074 -3.254,-1.623 -3.18,-3.455c0.414,-10.17 0.999,-20.705 3.647,-29.777c2.844,-9.747 8.029,-17.848 17.479,-22.473c1.645,-0.805 3.634,-0.121 4.438,1.526c0.804,1.648 0.121,3.64 -1.524,4.445c-7.67,3.754 -11.716,10.456 -14.024,18.366c-2.506,8.585 -2.994,18.56 -3.386,28.183Z" style="fill:#fff;"/><path d="M167.302,68.02c0.074,1.832 -1.35,3.381 -3.18,3.455c-1.83,0.075 -3.375,-1.352 -3.45,-3.185c-0.391,-9.623 -0.88,-19.598 -3.385,-28.183c-2.309,-7.91 -6.354,-14.612 -14.024,-18.366c-1.645,-0.805 -2.328,-2.797 -1.524,-4.445c0.803,-1.647 2.792,-2.331 4.437,-1.526c9.45,4.625 14.635,12.726 17.48,22.473c2.647,9.072 3.232,19.607 3.646,29.777Z" style="fill:#fff;"/><ellipse cx="127.846" cy="9.856" rx="8.886" ry="8.9" style="fill:#fff;"/><ellipse cx="226.654" cy="9.856" rx="8.886" ry="8.9" style="fill:#fff;"/><rect x="142.293" y="165.712" width="69.914" height="202.243" style="fill:#fff;"/></g><g transform="matrix(0.892619,0,0,1,-165.115,0)"><g transform="matrix(240,0,0,240,1318.19,253.666)"></g><text x="630.114px" y="253.666px" style="font-family:'Poppins-Regular', 'Poppins';font-size:240px;fill:#fff;">Belles</text></g><g transform="matrix(0.998397,0,0,1,-0.655865,0)"><g transform="matrix(90.6269,0,0,90.6269,1007.49,367.14)"></g><text x="409.535px" y="367.14px" style="font-family:'Poppins-Regular', 'Poppins';font-size:90.627px;fill:#fff;">in Economics</text></g></g></svg>